<svg width="151" height="140" viewBox="0 0 151 140" fill="none" xmlns="http://www.w3.org/2000/svg">
<g clip-path="url(#clip0_1_385)">
<path d="M0.697567 99.8007C0.708201 99.8558 0.72497 99.9094 0.74756 99.9607C0.757558 99.9907 0.767557 100.031 0.777555 100.061L12.1859 119.818L12.2159 119.848C12.2359 119.878 12.2559 119.908 12.2859 119.948C12.3245 119.99 12.3681 120.027 12.4158 120.058C12.4458 120.078 12.4658 120.108 12.4958 120.128C12.5076 120.136 12.5217 120.139 12.5358 120.138C12.649 120.201 12.7761 120.235 12.9058 120.238H58.0392L69.2075 139.575L69.2375 139.605C69.2575 139.635 69.2775 139.665 69.3075 139.705C69.3461 139.747 69.3898 139.784 69.4375 139.815C69.4675 139.835 69.4875 139.865 69.5175 139.885C69.5292 139.893 69.5434 139.896 69.5575 139.895C69.6706 139.958 69.7977 139.992 69.9274 139.995H138.367C138.5 139.993 138.631 139.958 138.747 139.895L138.837 139.835C138.922 139.778 138.997 139.707 139.057 139.625C139.067 139.605 139.097 139.595 139.107 139.575L150.516 119.818C150.526 119.798 150.526 119.788 150.536 119.768C150.553 119.736 150.567 119.703 150.576 119.668C150.586 119.628 150.596 119.598 150.606 119.558C150.614 119.522 150.617 119.485 150.616 119.448C150.616 119.428 150.626 119.418 150.626 119.398C150.626 119.378 150.616 119.368 150.616 119.348C150.616 119.308 150.606 119.278 150.606 119.238C150.606 119.198 150.586 119.168 150.576 119.128C150.564 119.094 150.551 119.061 150.536 119.028C150.526 119.008 150.526 118.998 150.516 118.978L127.949 79.8937L139.107 60.5565C139.117 60.5365 139.117 60.5265 139.127 60.5065C139.145 60.475 139.158 60.4414 139.167 60.4065C139.177 60.3665 139.187 60.3365 139.197 60.2965C139.206 60.2605 139.209 60.2235 139.207 60.1865C139.207 60.1665 139.217 60.1565 139.217 60.1365C139.217 60.1166 139.207 60.1066 139.207 60.0866C139.207 60.0466 139.197 60.0166 139.197 59.9766C139.197 59.9366 139.177 59.9066 139.167 59.8666C139.156 59.8326 139.142 59.7992 139.127 59.7666C139.117 59.7466 139.117 59.7366 139.107 59.7166L104.902 0.435308C104.882 0.405312 104.852 0.385315 104.832 0.35532C104.798 0.309945 104.761 0.266548 104.722 0.225339C104.681 0.192006 104.638 0.161919 104.592 0.135352C104.549 0.106117 104.502 0.0825943 104.452 0.0653622C104.394 0.0462327 104.334 0.0328384 104.272 0.0253681C104.242 0.0253681 104.212 0.00537109 104.172 0.00537109H81.3557C81.3357 0.00537109 81.3257 0.0153696 81.3057 0.0153696C81.2657 0.0153696 81.2357 0.0253681 81.1957 0.0253681L81.0758 0.0553637C81.0458 0.0653622 81.0058 0.0853594 80.9758 0.0953579C80.9458 0.105356 80.9458 0.105356 80.9258 0.115355C80.9144 0.127705 80.9008 0.137871 80.8858 0.145351C80.8535 0.1655 80.8233 0.188956 80.7958 0.21534C80.7667 0.239424 80.7399 0.266206 80.7158 0.295329C80.6958 0.325324 80.6658 0.35532 80.6458 0.385315C80.6335 0.396709 80.6233 0.410263 80.6158 0.425309L58.0491 39.5196H35.7324C35.7124 39.5196 35.7024 39.5296 35.6824 39.5296C35.6424 39.5296 35.6124 39.5396 35.5724 39.5396C35.5325 39.5396 35.4925 39.5596 35.4625 39.5696C35.4285 39.5812 35.3951 39.5945 35.3625 39.6096C35.3425 39.6196 35.3325 39.6196 35.3125 39.6296C35.2925 39.6396 35.2925 39.6496 35.2725 39.6596C35.2402 39.6797 35.21 39.7032 35.1825 39.7295C35.1534 39.7536 35.1266 39.7804 35.1025 39.8095C35.0825 39.8395 35.0525 39.8695 35.0325 39.8995C35.0202 39.9109 35.01 39.9245 35.0025 39.9395L0.787554 99.2208C0.773014 99.2526 0.762921 99.2863 0.757558 99.3208C0.736369 99.3726 0.719644 99.4261 0.707565 99.4808C0.691694 99.5325 0.684928 99.5867 0.687568 99.6408C0.685913 99.6943 0.68926 99.7478 0.697567 99.8007ZM103.682 1.70512L136.928 59.2867H116.071L82.8155 1.70512H103.682ZM115.091 98.8009H94.2238L116.061 60.9664H136.928L115.091 98.8009ZM81.3557 2.545L114.601 60.1265L92.7641 97.961L82.3356 79.8837L93.5039 60.5465C93.5139 60.5265 93.5139 60.5165 93.5239 60.4965C93.5415 60.465 93.555 60.4314 93.5639 60.3965C93.5739 60.3565 93.5839 60.3265 93.5939 60.2865C93.6022 60.2505 93.6056 60.2135 93.6039 60.1765C93.6039 60.1565 93.6139 60.1465 93.6139 60.1265C93.6139 60.1066 93.6039 60.0966 93.6039 60.0766C93.6039 60.0366 93.5939 60.0066 93.5939 59.9666C93.5939 59.9266 93.5739 59.8966 93.5639 59.8566C93.5523 59.8226 93.539 59.7892 93.5239 59.7566C93.5139 59.7366 93.5139 59.7266 93.5039 59.7066L82.0856 39.9495C82.0656 39.9195 82.0356 39.8995 82.0156 39.8695C81.9815 39.8241 81.9447 39.7807 81.9057 39.7395C81.8647 39.7062 81.8213 39.6761 81.7757 39.6496C81.7311 39.6223 81.6843 39.5988 81.6357 39.5796C81.5812 39.5599 81.5237 39.5498 81.4657 39.5496C81.4357 39.5496 81.3957 39.5296 81.3657 39.5296H60.0089L81.3557 2.545ZM58.5491 41.2193H80.8758L91.3143 59.2867H47.6307L37.1922 41.2193H58.5491ZM35.7324 42.0592L46.1609 60.1265L12.9158 117.708L2.4873 99.6408L35.7324 42.0592ZM14.3856 118.548L47.6307 60.9664H91.3143L80.8758 79.0438H58.5491C58.5291 79.0438 58.5191 79.0538 58.4991 79.0538C58.4591 79.0538 58.4291 79.0638 58.3891 79.0638L58.2691 79.0938C58.2391 79.1038 58.1991 79.1238 58.1691 79.1338C58.1391 79.1438 58.1391 79.1438 58.1191 79.1538C58.1077 79.1661 58.0942 79.1763 58.0791 79.1838C58.0468 79.2039 58.0166 79.2274 57.9892 79.2537C57.96 79.2778 57.9333 79.3046 57.9092 79.3337C57.8892 79.3637 57.8592 79.3937 57.8392 79.4237C57.8292 79.4337 57.8092 79.4437 57.8092 79.4637L46.4009 99.2208C46.3863 99.2526 46.3762 99.2863 46.3709 99.3208C46.3497 99.3726 46.3329 99.4261 46.3209 99.4808C46.3122 99.5336 46.3089 99.5872 46.3109 99.6408C46.3092 99.6943 46.3126 99.7478 46.3209 99.8007C46.3315 99.8558 46.3483 99.9094 46.3709 99.9607C46.3809 99.9907 46.3909 100.031 46.4009 100.061L57.0793 118.548H14.3856ZM137.907 138.305H71.4172L81.8457 120.238H148.336L137.907 138.305ZM69.9574 137.465L48.1206 99.6408L58.5591 81.5634L80.3959 119.388L69.9574 137.465ZM148.336 118.548H81.8457L60.0089 80.7235H80.8758L92.0442 100.061L92.0742 100.091C92.0941 100.126 92.1175 100.16 92.1441 100.191C92.1828 100.233 92.2264 100.27 92.2741 100.301C92.3041 100.321 92.3241 100.351 92.3541 100.371C92.3658 100.379 92.38 100.382 92.3941 100.381C92.5073 100.444 92.6344 100.478 92.7641 100.481H115.581C115.714 100.478 115.844 100.444 115.961 100.381L116.051 100.321C116.136 100.264 116.21 100.193 116.271 100.111C116.281 100.091 116.311 100.081 116.321 100.061L126.999 81.5634L148.336 118.548Z" fill="white"/>
</g>
<defs>
<clipPath id="clip0_1_385">
<rect width="149.938" height="140" fill="white" transform="translate(0.6875)"/>
</clipPath>
</defs>
</svg>
