<svg width="140" height="122" viewBox="0 0 140 122" fill="none" xmlns="http://www.w3.org/2000/svg">
<g clip-path="url(#clip0_1_394)">
<path d="M0.020425 108.876C0.0325637 108.927 0.0492805 108.978 0.070398 109.026C0.0758401 109.057 0.0859484 109.088 0.100388 109.116L7.37824 121.733L7.40823 121.763C7.42837 121.796 7.45183 121.826 7.47822 121.853C7.51821 121.893 7.55819 121.923 7.59818 121.963C7.62817 121.983 7.63817 122.013 7.66817 122.023C7.6799 122.031 7.69404 122.035 7.70813 122.033C7.81668 122.089 7.93619 122.12 8.05803 122.123H131.892C132.013 122.12 132.133 122.089 132.241 122.033C132.271 122.013 132.291 121.993 132.321 121.973C132.402 121.923 132.471 121.854 132.521 121.773C132.531 121.753 132.551 121.743 132.571 121.723L139.859 109.106C139.869 109.096 139.869 109.076 139.879 109.066C139.898 109.035 139.912 109.001 139.919 108.966C139.929 108.936 139.939 108.896 139.949 108.866C139.957 108.833 139.961 108.8 139.959 108.766C139.959 108.746 139.969 108.736 139.969 108.716C139.969 108.696 139.959 108.686 139.959 108.666C139.959 108.646 139.949 108.596 139.949 108.566C139.949 108.536 139.929 108.496 139.919 108.466C139.908 108.432 139.895 108.398 139.879 108.366C139.869 108.356 139.869 108.336 139.859 108.326L77.9474 1.07742C77.93 1.05203 77.9099 1.02857 77.8875 1.00744C77.8562 0.962842 77.8192 0.922511 77.7775 0.88746C77.6991 0.829733 77.6154 0.77952 77.5276 0.737489C77.4755 0.721778 77.4219 0.711722 77.3676 0.707496C77.3376 0.707496 77.3076 0.6875 77.2677 0.6875H62.7019C62.6819 0.6875 62.672 0.697497 62.652 0.697497C62.632 0.697497 62.582 0.707496 62.552 0.707496L62.442 0.737489C62.4077 0.748195 62.3743 0.761566 62.3421 0.777481C62.3303 0.785433 62.3162 0.788976 62.3021 0.78748C62.2907 0.799829 62.2771 0.809994 62.2621 0.817473C62.2337 0.835017 62.2069 0.855095 62.1821 0.877462C62.153 0.901544 62.1262 0.928325 62.1021 0.957446C62.0821 0.98744 62.0621 1.00744 62.0421 1.03743C62.0298 1.04882 62.0196 1.06238 62.0121 1.07742L0.0903812 108.336C0.0759416 108.364 0.0658333 108.395 0.0603912 108.426C0.0392585 108.474 0.0225413 108.525 0.0104182 108.576C0.00211188 108.626 -0.00124679 108.676 0.000411342 108.726C0.0104084 108.776 0.0104279 108.826 0.020425 108.876ZM76.8178 2.25719L137.83 107.936H31.2812L37.6593 96.8983H117.346C117.469 96.8973 117.59 96.8628 117.696 96.7984C117.706 96.7884 117.726 96.7984 117.736 96.7884C117.761 96.7709 117.785 96.7508 117.806 96.7284C117.848 96.6945 117.888 96.6577 117.926 96.6184C117.956 96.5808 117.983 96.5407 118.006 96.4984C118.036 96.4604 118.056 96.4159 118.066 96.3684C118.086 96.3176 118.096 96.2633 118.096 96.2085C118.096 96.1785 118.116 96.1485 118.116 96.1085C118.116 96.0885 118.106 96.0785 118.106 96.0585C118.1 96.0077 118.09 95.9575 118.076 95.9085C118.063 95.8572 118.047 95.807 118.026 95.7586C118.016 95.7486 118.016 95.7286 118.006 95.7186L64.0515 2.25719H76.8178ZM131.452 120.554H9.42763L62.7019 28.272L69.0801 39.3098L29.2318 108.326C29.2238 108.338 29.2203 108.352 29.2218 108.366C29.2007 108.414 29.1839 108.465 29.1718 108.516C29.157 108.565 29.147 108.615 29.1418 108.666C29.1418 108.686 29.1318 108.696 29.1318 108.716C29.1318 108.736 29.1518 108.776 29.1518 108.816C29.157 108.87 29.167 108.924 29.1818 108.976C29.2018 109.026 29.2218 109.066 29.2418 109.106C29.2661 109.147 29.2928 109.187 29.3218 109.226C29.3618 109.266 29.4018 109.296 29.4417 109.336C29.4717 109.356 29.4817 109.386 29.5117 109.396C29.5217 109.406 29.5417 109.396 29.5517 109.406C29.6596 109.465 29.779 109.499 29.9016 109.506H137.81L131.452 120.554ZM101.411 95.3287H38.5591L69.9898 40.8895L101.411 95.3287ZM62.7019 3.04703L115.976 95.3287H103.23L63.3917 26.3124C63.3794 26.301 63.3692 26.2875 63.3617 26.2724C63.3318 26.2324 63.2918 26.1924 63.2618 26.1524C63.2265 26.1139 63.1861 26.0802 63.1418 26.0524C63.1304 26.0401 63.1169 26.0299 63.1018 26.0225C63.0735 26.008 63.0432 25.9979 63.0118 25.9925C62.9635 25.9713 62.9133 25.9546 62.8619 25.9425C62.7624 25.9291 62.6615 25.9291 62.562 25.9425C62.5106 25.9546 62.4604 25.9713 62.412 25.9925C62.3807 25.9979 62.3504 26.008 62.322 26.0225C62.3107 26.0348 62.2971 26.045 62.2821 26.0524C62.2421 26.0824 62.2021 26.1224 62.1621 26.1524C62.1208 26.185 62.0867 26.2259 62.0621 26.2724C62.0498 26.2838 62.0396 26.2974 62.0322 26.3124L8.07805 119.774L1.69992 108.736L62.7019 3.04703Z" fill="white"/>
</g>
<defs>
<clipPath id="clip0_1_394">
<rect width="139.969" height="121.438" fill="white" transform="translate(0 0.28125)"/>
</clipPath>
</defs>
</svg>
